<svg xmlns="http://www.w3.org/2000/svg" width="760" height="400" viewBox="0 0 760 400" font-family="sans-serif">
  <rect width="760" height="400" fill="#ffffff"/>
  <g stroke="#222222" fill="none" stroke-width="1.8">
    <line x1="180" y1="52" x2="620" y2="52"/>
    <line x1="400" y1="52" x2="400" y2="30"/>
    <circle cx="400" cy="24" r="5"/>
    <circle cx="400" cy="52" r="3.5" fill="#222222"/>
    <!-- R1 -->
    <line x1="180" y1="52" x2="180" y2="80"/>
    <path d="M 180 80 l 9 7 l -18 11 l 18 11 l -18 11 l 9 7"/>
    <line x1="180" y1="127" x2="180" y2="250"/>
    <!-- RL -->
    <line x1="620" y1="52" x2="620" y2="80"/>
    <path d="M 620 80 l 9 7 l -18 11 l 18 11 l -18 11 l 9 7"/>
    <line x1="620" y1="127" x2="620" y2="200"/>
    <line x1="620" y1="200" x2="700" y2="200"/>
    <circle cx="708" cy="200" r="5"/>
    <circle cx="620" cy="200" r="3.5" fill="#222222"/>
    <!-- input diodes: cathode (bar) at input, anode at node -->
    <line x1="60" y1="150" x2="112" y2="150"/>
    <polygon points="150,134 112,150 150,166" fill="#e9eef4"/>
    <line x1="112" y1="132" x2="112" y2="168"/>
    <line x1="150" y1="150" x2="180" y2="150"/>
    <line x1="60" y1="200" x2="112" y2="200"/>
    <polygon points="150,184 112,200 150,216" fill="#e9eef4"/>
    <line x1="112" y1="182" x2="112" y2="218"/>
    <line x1="150" y1="200" x2="180" y2="200"/>
    <line x1="60" y1="250" x2="112" y2="250"/>
    <polygon points="150,234 112,250 150,266" fill="#e9eef4"/>
    <line x1="112" y1="232" x2="112" y2="268"/>
    <line x1="150" y1="250" x2="180" y2="250"/>
    <circle cx="52" cy="150" r="5"/>
    <circle cx="52" cy="200" r="5"/>
    <circle cx="52" cy="250" r="5"/>
    <circle cx="180" cy="150" r="3.5" fill="#222222"/>
    <circle cx="180" cy="200" r="3.5" fill="#222222"/>
    <line x1="180" y1="250" x2="180" y2="250"/>
    <!-- R2 with C1 in parallel -->
    <line x1="180" y1="200" x2="240" y2="200"/>
    <path d="M 240 200 l 7 -9 l 11 18 l 11 -18 l 11 18 l 11 -18 l 7 9"/>
    <line x1="298" y1="200" x2="420" y2="200"/>
    <line x1="200" y1="200" x2="200" y2="150"/>
    <line x1="200" y1="150" x2="296" y2="150"/>
    <line x1="296" y1="138" x2="296" y2="162"/>
    <line x1="308" y1="138" x2="308" y2="162"/>
    <line x1="308" y1="150" x2="356" y2="150"/>
    <line x1="356" y1="150" x2="356" y2="200"/>
    <circle cx="200" cy="200" r="3.5" fill="#222222"/>
    <circle cx="356" cy="200" r="3.5" fill="#222222"/>
    <!-- R3 to -VBB -->
    <line x1="356" y1="200" x2="356" y2="240"/>
    <path d="M 356 240 l 9 7 l -18 11 l 18 11 l -18 11 l 9 7"/>
    <line x1="356" y1="287" x2="356" y2="330"/>
    <circle cx="356" cy="336" r="5"/>
    <!-- Q1 -->
    <circle cx="470" cy="200" r="42"/>
    <line x1="450" y1="176" x2="450" y2="224"/>
    <line x1="420" y1="200" x2="450" y2="200"/>
    <line x1="450" y1="188" x2="478" y2="166"/>
    <line x1="478" y1="166" x2="478" y2="132"/>
    <line x1="478" y1="132" x2="620" y2="132"/><circle cx="620" cy="132" r="3.5" fill="#222222"/>
    <line x1="450" y1="212" x2="478" y2="234"/>
    <polygon points="470,226 480,232 470,238" fill="#222222" stroke="none"/>
    <line x1="478" y1="234" x2="478" y2="300"/>
    <line x1="462" y1="300" x2="494" y2="300"/>
    <line x1="468" y1="308" x2="488" y2="308"/>
    <line x1="474" y1="316" x2="482" y2="316"/>
  </g>
  <g font-size="13.5" fill="#222222">
    <text x="410" y="20">+V_CC</text>
    <text x="192" y="106">R_1</text>
    <text x="632" y="106">R_L</text>
    <text x="60" y="128">inputs</text>
    <text x="122" y="128">D_1</text>
    <text x="122" y="180">D_2</text>
    <text x="122" y="230">D_3</text>
    <text x="256" y="234">R_2</text>
    <text x="236" y="126">C_1</text>
    <text x="368" y="278">R_3</text>
    <text x="368" y="342">-V_BB</text>
    <text x="514" y="196">Q_1</text>
    <text x="716" y="204">output</text>
    <text x="200" y="382" font-weight="bold" fill="#1f4e79">output = NOT (A . B . C)</text>
  </g>
</svg>
