<svg xmlns="http://www.w3.org/2000/svg" width="620" height="450" viewBox="0 0 620 450" font-family="sans-serif">
  <defs>
    <marker id="ar" viewBox="0 0 10 10" refX="9" refY="5" markerWidth="7" markerHeight="7" orient="auto-start-reverse">
      <path d="M0,0 L10,5 L0,10 z" fill="#1a1a1a"/>
    </marker>
    <marker id="arA" viewBox="0 0 10 10" refX="9" refY="5" markerWidth="7" markerHeight="7" orient="auto-start-reverse">
      <path d="M0,0 L10,5 L0,10 z" fill="#1b4f72"/>
    </marker>
  </defs>
  <rect width="100%" height="100%" fill="#ffffff"/>
  <text x="310.0" y="26" font-size="14" text-anchor="middle" fill="#1a1a1a">State diagram of the JK circuit   (edge label = input x)</text>
  <circle cx="160" cy="140" r="32" fill="#ffffff" stroke="#1b4f72" stroke-width="2.0"/>
  <text x="160" y="139" font-size="13" text-anchor="middle" fill="#1a1a1a">00</text>
  <text x="160" y="153" font-size="11" text-anchor="middle" fill="#117a65">S0</text>
  <circle cx="460" cy="140" r="32" fill="#ffffff" stroke="#1b4f72" stroke-width="2.0"/>
  <text x="460" y="139" font-size="13" text-anchor="middle" fill="#1a1a1a">11</text>
  <text x="460" y="153" font-size="11" text-anchor="middle" fill="#117a65">S3</text>
  <circle cx="160" cy="340" r="32" fill="#ffffff" stroke="#1b4f72" stroke-width="2.0"/>
  <text x="160" y="339" font-size="13" text-anchor="middle" fill="#1a1a1a">01</text>
  <text x="160" y="353" font-size="11" text-anchor="middle" fill="#117a65">S1</text>
  <circle cx="460" cy="340" r="32" fill="#ffffff" stroke="#1b4f72" stroke-width="2.0"/>
  <text x="460" y="339" font-size="13" text-anchor="middle" fill="#1a1a1a">10</text>
  <text x="460" y="353" font-size="11" text-anchor="middle" fill="#117a65">S2</text>
  <path d="M130.8,153.0 C96.2,195.8 96.2,84.2 130.8,127.0" stroke="#1b4f72" stroke-width="1.7" fill="none"/>
  <path d="M130.77,126.98 L122.17,122.36 L128.05,117.61 Z" fill="#1b4f72" stroke="none"/>
  <text x="61.099999999999994" y="148.0" font-size="12" text-anchor="middle" fill="#117a65">1</text>
  <path d="M489.2,127.0 C523.8,84.2 523.8,195.8 489.2,153.0" stroke="#1b4f72" stroke-width="1.7" fill="none"/>
  <path d="M489.23,153.02 L497.83,157.64 L491.95,162.39 Z" fill="#1b4f72" stroke="none"/>
  <text x="558.9" y="148.0" font-size="12" text-anchor="middle" fill="#117a65">1</text>
  <path d="M489.2,327.0 C523.8,284.2 523.8,395.8 489.2,353.0" stroke="#1b4f72" stroke-width="1.7" fill="none"/>
  <path d="M489.23,353.02 L497.83,357.64 L491.95,362.39 Z" fill="#1b4f72" stroke="none"/>
  <text x="558.9" y="348.0" font-size="12" text-anchor="middle" fill="#117a65">1</text>
  <path d="M428.0,153.2 Q310.0,184.0 192.0,153.2" stroke="#1b4f72" stroke-width="1.7" fill="none"/>
  <path d="M192.00,153.20 L201.66,151.82 L199.75,159.13 Z" fill="#1b4f72" stroke="none"/>
  <text x="310.0" y="172.0" font-size="12" text-anchor="middle" fill="#117a65">0</text>
  <path d="M160.0,172.0 Q160.0,240.0 160.0,308.0" stroke="#1b4f72" stroke-width="1.7" fill="none"/>
  <path d="M160.00,308.00 L156.22,299.00 L163.78,299.00 Z" fill="#1b4f72" stroke="none"/>
  <text x="144.0" y="240.0" font-size="12" text-anchor="middle" fill="#117a65">0</text>
  <path d="M186.6,322.2 Q310.0,240.0 433.4,157.8" stroke="#1b4f72" stroke-width="1.7" fill="none"/>
  <path d="M433.37,157.75 L427.98,165.89 L423.79,159.60 Z" fill="#1b4f72" stroke="none"/>
  <text x="290.0" y="230.0" font-size="12" text-anchor="middle" fill="#117a65">0</text>
  <path d="M192.0,340.0 Q310.0,340.0 428.0,340.0" stroke="#1b4f72" stroke-width="1.7" fill="none"/>
  <path d="M428.00,340.00 L419.00,343.78 L419.00,336.22 Z" fill="#1b4f72" stroke="none"/>
  <text x="310.0" y="360.0" font-size="12" text-anchor="middle" fill="#117a65">1</text>
  <path d="M460.0,308.0 Q460.0,240.0 460.0,172.0" stroke="#1b4f72" stroke-width="1.7" fill="none"/>
  <path d="M460.00,172.00 L463.78,181.00 L456.22,181.00 Z" fill="#1b4f72" stroke="none"/>
  <text x="480.0" y="240.0" font-size="12" text-anchor="middle" fill="#117a65">0</text>
  <text x="310.0" y="424" font-size="10" text-anchor="middle" fill="#117a65">state = A B;  J_A = B,  K_A = B x′,  J_B = x′,  K_B = A ⊕ x</text>
</svg>
