<svg xmlns="http://www.w3.org/2000/svg" width="800" height="620" viewBox="0 0 800 620" font-family="sans-serif">
  <defs>
    <marker id="ar" viewBox="0 0 10 10" refX="9" refY="5" markerWidth="7" markerHeight="7" orient="auto-start-reverse">
      <path d="M0,0 L10,5 L0,10 z" fill="#1a1a1a"/>
    </marker>
    <marker id="arA" viewBox="0 0 10 10" refX="9" refY="5" markerWidth="7" markerHeight="7" orient="auto-start-reverse">
      <path d="M0,0 L10,5 L0,10 z" fill="#1b4f72"/>
    </marker>
  </defs>
  <rect width="100%" height="100%" fill="#ffffff"/>
  <text x="400.0" y="26" font-size="13" text-anchor="middle" fill="#1a1a1a">The same behaviour (detect two consecutive 1s) as Mealy and as Moore</text>
  <text x="400.0" y="72" font-size="12" text-anchor="middle" fill="#1b4f72">Mealy model — output is written on the transition</text>
  <circle cx="250" cy="170" r="30" fill="#ffffff" stroke="#1b4f72" stroke-width="2.0"/>
  <circle cx="250" cy="170" r="25.5" fill="none" stroke="#1b4f72" stroke-width="1.2"/>
  <text x="250" y="175" font-size="13" text-anchor="middle" fill="#1a1a1a">0</text>
  <circle cx="550" cy="170" r="30" fill="#ffffff" stroke="#1b4f72" stroke-width="2.0"/>
  <text x="550" y="175" font-size="13" text-anchor="middle" fill="#1a1a1a">1</text>
  <path d="M280.0,153.2 Q400.0,114.0 520.0,153.2" stroke="#1b4f72" stroke-width="1.7" fill="none"/>
  <path d="M520.00,153.20 L510.27,154.00 L512.62,146.81 Z" fill="#1b4f72" stroke="none"/>
  <text x="400.0" y="102.0" font-size="12" text-anchor="middle" fill="#117a65">x = 1 / o = 0</text>
  <path d="M520.0,179.0 Q400.0,200.0 280.0,179.0" stroke="#1b4f72" stroke-width="1.7" fill="none"/>
  <path d="M280.00,179.00 L289.52,176.83 L288.21,184.27 Z" fill="#1b4f72" stroke="none"/>
  <text x="400.0" y="222.0" font-size="12" text-anchor="middle" fill="#117a65">x = 0 / o = 0</text>
  <path d="M222.6,182.2 C184.1,227.7 184.1,112.3 222.6,157.8" stroke="#1b4f72" stroke-width="1.7" fill="none"/>
  <path d="M222.59,157.80 L213.89,153.37 L219.66,148.49 Z" fill="#1b4f72" stroke="none"/>
  <text x="119.19999999999999" y="178.0" font-size="12" text-anchor="middle" fill="#117a65">x = 0 / o = 0</text>
  <path d="M577.4,157.8 C615.9,112.3 615.9,227.7 577.4,182.2" stroke="#1b4f72" stroke-width="1.7" fill="none"/>
  <path d="M577.41,182.20 L586.11,186.63 L580.34,191.51 Z" fill="#1b4f72" stroke="none"/>
  <text x="682.8" y="178.0" font-size="12" text-anchor="middle" fill="#117a65">x = 1 / o = 1</text>
  <text x="400.0" y="248" font-size="10" text-anchor="middle" fill="#117a65">two states;  o = 1 during the second consecutive 1</text>
  <text x="400.0" y="310" font-size="12" text-anchor="middle" fill="#1b4f72">Moore model — output is written inside the state</text>
  <circle cx="170" cy="400" r="30" fill="#ffffff" stroke="#1b4f72" stroke-width="2.0"/>
  <circle cx="170" cy="400" r="25.5" fill="none" stroke="#1b4f72" stroke-width="1.2"/>
  <text x="170" y="399" font-size="13" text-anchor="middle" fill="#1a1a1a">0</text>
  <text x="170" y="413" font-size="11" text-anchor="middle" fill="#117a65">o = 0</text>
  <circle cx="400" cy="400" r="30" fill="#ffffff" stroke="#1b4f72" stroke-width="2.0"/>
  <text x="400" y="399" font-size="13" text-anchor="middle" fill="#1a1a1a">1</text>
  <text x="400" y="413" font-size="11" text-anchor="middle" fill="#117a65">o = 0</text>
  <circle cx="620" cy="400" r="30" fill="#ffffff" stroke="#1b4f72" stroke-width="2.0"/>
  <text x="620" y="399" font-size="13" text-anchor="middle" fill="#1a1a1a">2</text>
  <text x="620" y="413" font-size="11" text-anchor="middle" fill="#117a65">o = 1</text>
  <path d="M200.0,387.4 Q285.0,358.0 370.0,387.4" stroke="#1b4f72" stroke-width="1.7" fill="none"/>
  <path d="M370.00,387.40 L360.26,388.03 L362.73,380.89 Z" fill="#1b4f72" stroke="none"/>
  <text x="285.0" y="346.0" font-size="12" text-anchor="middle" fill="#117a65">x = 1</text>
  <path d="M430.0,387.4 Q510.0,358.0 590.0,387.4" stroke="#1b4f72" stroke-width="1.7" fill="none"/>
  <path d="M590.00,387.40 L580.25,387.84 L582.86,380.75 Z" fill="#1b4f72" stroke="none"/>
  <text x="510.0" y="346.0" font-size="12" text-anchor="middle" fill="#117a65">x = 1</text>
  <path d="M370.0,407.8 Q285.0,426.0 200.0,407.8" stroke="#1b4f72" stroke-width="1.7" fill="none"/>
  <path d="M200.00,407.80 L209.59,405.99 L208.01,413.38 Z" fill="#1b4f72" stroke="none"/>
  <text x="285.0" y="448.0" font-size="12" text-anchor="middle" fill="#117a65">x = 0</text>
  <path d="M590.0,431.2 Q395.0,504.0 200.0,431.2" stroke="#1b4f72" stroke-width="1.7" fill="none"/>
  <path d="M200.00,431.20 L209.75,430.81 L207.11,437.89 Z" fill="#1b4f72" stroke="none"/>
  <text x="395.0" y="528.0" font-size="12" text-anchor="middle" fill="#117a65">x = 0</text>
  <path d="M142.6,412.2 C104.1,457.7 104.1,342.3 142.6,387.8" stroke="#1b4f72" stroke-width="1.7" fill="none"/>
  <path d="M142.59,387.80 L133.89,383.37 L139.66,378.49 Z" fill="#1b4f72" stroke="none"/>
  <text x="63.2" y="408.0" font-size="12" text-anchor="middle" fill="#117a65">x = 0</text>
  <path d="M647.4,387.8 C685.9,342.3 685.9,457.7 647.4,412.2" stroke="#1b4f72" stroke-width="1.7" fill="none"/>
  <path d="M647.41,412.20 L656.11,416.63 L650.34,421.51 Z" fill="#1b4f72" stroke="none"/>
  <text x="728.8" y="408.0" font-size="12" text-anchor="middle" fill="#117a65">x = 1</text>
  <text x="400.0" y="596" font-size="10" text-anchor="middle" fill="#117a65">three states;  o = 1 for the whole clock period spent in state 2</text>
</svg>
