<svg xmlns="http://www.w3.org/2000/svg" width="894" height="718" viewBox="0 0 894 718" font-family="sans-serif">
<rect width="894" height="718" fill="#ffffff"/>
<text x="447.0" y="26" text-anchor="middle" font-size="18" font-weight="bold" fill="#111111">Implication chart — implied pairs entered, self-redundant pairs struck</text>
<text x="126.0" y="56" text-anchor="middle" font-size="16" font-weight="bold" fill="#1f6feb">a</text>
<text x="238.0" y="56" text-anchor="middle" font-size="16" font-weight="bold" fill="#1f6feb">b</text>
<text x="350.0" y="56" text-anchor="middle" font-size="16" font-weight="bold" fill="#1f6feb">c</text>
<text x="462.0" y="56" text-anchor="middle" font-size="16" font-weight="bold" fill="#1f6feb">d</text>
<text x="574.0" y="56" text-anchor="middle" font-size="16" font-weight="bold" fill="#1f6feb">e</text>
<text x="686.0" y="56" text-anchor="middle" font-size="16" font-weight="bold" fill="#1f6feb">f</text>
<text x="798.0" y="56" text-anchor="middle" font-size="16" font-weight="bold" fill="#1f6feb">g</text>
<text x="56" y="113.0" text-anchor="end" font-size="16" font-weight="bold" fill="#1f6feb">b</text>
<text x="56" y="197.0" text-anchor="end" font-size="16" font-weight="bold" fill="#1f6feb">c</text>
<text x="56" y="281.0" text-anchor="end" font-size="16" font-weight="bold" fill="#1f6feb">d</text>
<text x="56" y="365.0" text-anchor="end" font-size="16" font-weight="bold" fill="#1f6feb">e</text>
<text x="56" y="449.0" text-anchor="end" font-size="16" font-weight="bold" fill="#1f6feb">f</text>
<text x="56" y="533.0" text-anchor="end" font-size="16" font-weight="bold" fill="#1f6feb">g</text>
<text x="56" y="617.0" text-anchor="end" font-size="16" font-weight="bold" fill="#1f6feb">h</text>
<rect x="70" y="66" width="112" height="84" fill="#ffffff" stroke="#111111" stroke-width="1.4"/>
<text x="126.0" y="96" text-anchor="middle" font-size="15" fill="#111111">d-f</text>
<text x="126.0" y="124" text-anchor="middle" font-size="15" fill="#111111">c-h</text>
<rect x="70" y="150" width="112" height="84" fill="#ffffff" stroke="#111111" stroke-width="1.4"/>
<line x1="78" y1="158" x2="174" y2="226" stroke="#111111" stroke-width="2.4"/>
<line x1="174" y1="158" x2="78" y2="226" stroke="#111111" stroke-width="2.4"/>
<rect x="182" y="150" width="112" height="84" fill="#ffffff" stroke="#111111" stroke-width="1.4"/>
<line x1="190" y1="158" x2="286" y2="226" stroke="#111111" stroke-width="2.4"/>
<line x1="286" y1="158" x2="190" y2="226" stroke="#111111" stroke-width="2.4"/>
<rect x="70" y="234" width="112" height="84" fill="#ffffff" stroke="#111111" stroke-width="1.4"/>
<text x="126.0" y="264" text-anchor="middle" font-size="15" fill="#111111">c-e</text>
<rect x="182" y="234" width="112" height="84" fill="#ffffff" stroke="#111111" stroke-width="1.4"/>
<text x="238.0" y="264" text-anchor="middle" font-size="15" fill="#111111">a-f</text>
<text x="238.0" y="292" text-anchor="middle" font-size="15" fill="#111111">e-h</text>
<rect x="294" y="234" width="112" height="84" fill="#ffffff" stroke="#111111" stroke-width="1.4"/>
<line x1="302" y1="242" x2="398" y2="310" stroke="#111111" stroke-width="2.4"/>
<line x1="398" y1="242" x2="302" y2="310" stroke="#111111" stroke-width="2.4"/>
<rect x="70" y="318" width="112" height="84" fill="#ffffff" stroke="#111111" stroke-width="1.4"/>
<line x1="78" y1="326" x2="174" y2="394" stroke="#111111" stroke-width="2.4"/>
<line x1="174" y1="326" x2="78" y2="394" stroke="#111111" stroke-width="2.4"/>
<rect x="182" y="318" width="112" height="84" fill="#ffffff" stroke="#111111" stroke-width="1.4"/>
<line x1="190" y1="326" x2="286" y2="394" stroke="#111111" stroke-width="2.4"/>
<line x1="286" y1="326" x2="190" y2="394" stroke="#111111" stroke-width="2.4"/>
<rect x="294" y="318" width="112" height="84" fill="#ffffff" stroke="#111111" stroke-width="1.4"/>
<text x="350.0" y="348" text-anchor="middle" font-size="15" fill="#111111">a-d</text>
<rect x="406" y="318" width="112" height="84" fill="#ffffff" stroke="#111111" stroke-width="1.4"/>
<line x1="414" y1="326" x2="510" y2="394" stroke="#111111" stroke-width="2.4"/>
<line x1="510" y1="326" x2="414" y2="394" stroke="#111111" stroke-width="2.4"/>
<rect x="70" y="402" width="112" height="84" fill="#ffffff" stroke="#111111" stroke-width="1.4"/>
<line x1="78" y1="410" x2="174" y2="478" stroke="#111111" stroke-width="2.4"/>
<line x1="174" y1="410" x2="78" y2="478" stroke="#111111" stroke-width="2.4"/>
<rect x="182" y="402" width="112" height="84" fill="#ffffff" stroke="#111111" stroke-width="1.4"/>
<line x1="190" y1="410" x2="286" y2="478" stroke="#111111" stroke-width="2.4"/>
<line x1="286" y1="410" x2="190" y2="478" stroke="#111111" stroke-width="2.4"/>
<rect x="294" y="402" width="112" height="84" fill="#ffffff" stroke="#111111" stroke-width="1.4"/>
<text x="350.0" y="432" text-anchor="middle" font-size="15" fill="#111111">e-f</text>
<text x="350.0" y="460" text-anchor="middle" font-size="15" fill="#111111">b-d</text>
<rect x="406" y="402" width="112" height="84" fill="#ffffff" stroke="#111111" stroke-width="1.4"/>
<line x1="414" y1="410" x2="510" y2="478" stroke="#111111" stroke-width="2.4"/>
<line x1="510" y1="410" x2="414" y2="478" stroke="#111111" stroke-width="2.4"/>
<rect x="518" y="402" width="112" height="84" fill="#ffffff" stroke="#111111" stroke-width="1.4"/>
<text x="574.0" y="432" text-anchor="middle" font-size="15" fill="#111111">c-f</text>
<text x="574.0" y="460" text-anchor="middle" font-size="15" fill="#111111">a-b</text>
<rect x="70" y="486" width="112" height="84" fill="#ffffff" stroke="#111111" stroke-width="1.4"/>
<text x="126.0" y="516" text-anchor="middle" font-size="15" fill="#111111">b-d</text>
<text x="126.0" y="544" text-anchor="middle" font-size="15" fill="#111111">c-h</text>
<rect x="182" y="486" width="112" height="84" fill="#ffffff" stroke="#111111" stroke-width="1.4"/>
<text x="238.0" y="516" text-anchor="middle" font-size="15" fill="#111111">b-f</text>
<rect x="294" y="486" width="112" height="84" fill="#ffffff" stroke="#111111" stroke-width="1.4"/>
<line x1="302" y1="494" x2="398" y2="562" stroke="#111111" stroke-width="2.4"/>
<line x1="398" y1="494" x2="302" y2="562" stroke="#111111" stroke-width="2.4"/>
<rect x="406" y="486" width="112" height="84" fill="#ffffff" stroke="#111111" stroke-width="1.4"/>
<text x="462.0" y="516" text-anchor="middle" font-size="15" fill="#111111">a-b</text>
<text x="462.0" y="544" text-anchor="middle" font-size="15" fill="#111111">e-h</text>
<rect x="518" y="486" width="112" height="84" fill="#ffffff" stroke="#111111" stroke-width="1.4"/>
<line x1="526" y1="494" x2="622" y2="562" stroke="#111111" stroke-width="2.4"/>
<line x1="622" y1="494" x2="526" y2="562" stroke="#111111" stroke-width="2.4"/>
<rect x="630" y="486" width="112" height="84" fill="#ffffff" stroke="#111111" stroke-width="1.4"/>
<line x1="638" y1="494" x2="734" y2="562" stroke="#111111" stroke-width="2.4"/>
<line x1="734" y1="494" x2="638" y2="562" stroke="#111111" stroke-width="2.4"/>
<rect x="70" y="570" width="112" height="84" fill="#ffffff" stroke="#111111" stroke-width="1.4"/>
<line x1="78" y1="578" x2="174" y2="646" stroke="#111111" stroke-width="2.4"/>
<line x1="174" y1="578" x2="78" y2="646" stroke="#111111" stroke-width="2.4"/>
<rect x="182" y="570" width="112" height="84" fill="#ffffff" stroke="#111111" stroke-width="1.4"/>
<line x1="190" y1="578" x2="286" y2="646" stroke="#111111" stroke-width="2.4"/>
<line x1="286" y1="578" x2="190" y2="646" stroke="#111111" stroke-width="2.4"/>
<rect x="294" y="570" width="112" height="84" fill="#ffffff" stroke="#111111" stroke-width="1.4"/>
<text x="350.0" y="600" text-anchor="middle" font-size="15" fill="#111111">c-e</text>
<text x="350.0" y="628" text-anchor="middle" font-size="15" fill="#111111">d-g</text>
<rect x="406" y="570" width="112" height="84" fill="#ffffff" stroke="#111111" stroke-width="1.4"/>
<line x1="414" y1="578" x2="510" y2="646" stroke="#111111" stroke-width="2.4"/>
<line x1="510" y1="578" x2="414" y2="646" stroke="#111111" stroke-width="2.4"/>
<rect x="518" y="570" width="112" height="84" fill="#ffffff" stroke="#111111" stroke-width="1.4"/>
<text x="574.0" y="600" text-anchor="middle" font-size="15" fill="#111111">a-g</text>
<rect x="630" y="570" width="112" height="84" fill="#ffffff" stroke="#111111" stroke-width="1.4"/>
<text x="686.0" y="600" text-anchor="middle" font-size="15" fill="#111111">c-f</text>
<text x="686.0" y="628" text-anchor="middle" font-size="15" fill="#111111">b-g</text>
<rect x="742" y="570" width="112" height="84" fill="#ffffff" stroke="#111111" stroke-width="1.4"/>
<line x1="750" y1="578" x2="846" y2="646" stroke="#111111" stroke-width="2.4"/>
<line x1="846" y1="578" x2="750" y2="646" stroke="#111111" stroke-width="2.4"/>
<text x="30" y="696" font-size="13" fill="#777777">a-d in square a-d and c-e in square c-e are self-redundant and are struck out.</text>
</svg>