<svg xmlns="http://www.w3.org/2000/svg" width="1060" height="830" viewBox="0 0 1060 830" font-family="sans-serif">
  <rect width="1060" height="830" fill="#ffffff"/>
  <defs><marker id="ar" markerWidth="9" markerHeight="9" refX="8" refY="3" orient="auto"><path d="M0,0 L8,3 L0,6 z" fill="#111111"/></marker><marker id="ara" markerWidth="9" markerHeight="9" refX="8" refY="3" orient="auto"><path d="M0,0 L8,3 L0,6 z" fill="#0b5c8a"/></marker></defs>
  <circle cx="520" cy="140" r="32" fill="none" stroke="#111111" stroke-width="1.8"/>
  <text x="520" y="145" font-size="13" text-anchor="middle" fill="#111111">S0</text>
  <circle cx="520" cy="280" r="32" fill="none" stroke="#111111" stroke-width="1.8"/>
  <text x="520" y="285" font-size="13" text-anchor="middle" fill="#111111">S1</text>
  <circle cx="150" cy="280" r="32" fill="none" stroke="#111111" stroke-width="1.8"/>
  <line x1="118" y1="280" x2="182" y2="280" stroke="#111111" stroke-width="1.2"/>
  <text x="150" y="272" font-size="13" text-anchor="middle" fill="#111111">S2</text>
  <text x="150" y="300" font-size="11.5" text-anchor="middle" fill="#111111">Win</text>
  <circle cx="890" cy="280" r="32" fill="none" stroke="#111111" stroke-width="1.8"/>
  <line x1="858" y1="280" x2="922" y2="280" stroke="#111111" stroke-width="1.2"/>
  <text x="890" y="272" font-size="13" text-anchor="middle" fill="#111111">S3</text>
  <text x="890" y="300" font-size="11.5" text-anchor="middle" fill="#111111">Lose</text>
  <circle cx="520" cy="480" r="32" fill="none" stroke="#111111" stroke-width="1.8"/>
  <text x="520" y="485" font-size="13" text-anchor="middle" fill="#111111">S4</text>
  <circle cx="520" cy="670" r="32" fill="none" stroke="#111111" stroke-width="1.8"/>
  <text x="520" y="675" font-size="13" text-anchor="middle" fill="#111111">S5</text>
  <path d="M506.0 111.2 A27 27 0 1 1 534.0 111.2" fill="none" stroke="#111111" stroke-width="1.5" marker-end="url(#ar)"/>
  <text x="520.0" y="36.0" font-size="11.5" text-anchor="middle" fill="#0b5c8a">Rb′ / 0</text>
  <path d="M530.4 249.7 A27 27 0 1 1 550.3 269.6" fill="none" stroke="#111111" stroke-width="1.5" marker-end="url(#ar)"/>
  <text x="596.3675323681472" y="207.63246763185288" font-size="11.5" text-anchor="middle" fill="#0b5c8a">Rb / Roll</text>
  <path d="M118.1 277.8 A27 27 0 1 1 132.1 253.5" fill="none" stroke="#111111" stroke-width="1.5" marker-end="url(#ar)"/>
  <text x="56.469256391280624" y="230.0" font-size="11.5" text-anchor="middle" fill="#0b5c8a">Reset′ / 0</text>
  <path d="M907.9 253.5 A27 27 0 1 1 921.9 277.8" fill="none" stroke="#111111" stroke-width="1.5" marker-end="url(#ar)"/>
  <text x="983.5307436087194" y="230.0" font-size="11.5" text-anchor="middle" fill="#0b5c8a">Reset′ / 0</text>
  <path d="M491.2 494.0 A27 27 0 1 1 491.2 466.0" fill="none" stroke="#111111" stroke-width="1.5" marker-end="url(#ar)"/>
  <text x="412.0" y="484.0" font-size="11.5" text-anchor="middle" fill="#0b5c8a">Rb′ / 0</text>
  <path d="M534.0 698.8 A27 27 0 1 1 506.0 698.8" fill="none" stroke="#111111" stroke-width="1.5" marker-end="url(#ar)"/>
  <text x="520.0" y="782.0" font-size="11.5" text-anchor="middle" fill="#0b5c8a">Rb / Roll</text>
  <path d="M520.0 172.0 L520.0 248.0" fill="none" stroke="#111111" stroke-width="1.5" marker-end="url(#ar)"/>
  <text x="520.0" y="214.0" font-size="11.5" text-anchor="middle" fill="#0b5c8a"></text>
  <text x="484" y="215" font-size="11.5" text-anchor="end" fill="#0b5c8a">Rb / 0</text>
  <text x="560" y="190" font-size="11" text-anchor="middle" fill="#0b5c8a"></text>
  <path d="M488.0 280.0 L182.0 280.0" fill="none" stroke="#111111" stroke-width="1.5" marker-end="url(#ar)"/>
  <text x="335.0" y="268.0" font-size="11.5" text-anchor="middle" fill="#0b5c8a">Rb′ D711 / 0</text>
  <path d="M552.0 280.0 L858.0 280.0" fill="none" stroke="#111111" stroke-width="1.5" marker-end="url(#ar)"/>
  <text x="705.0" y="268.0" font-size="11.5" text-anchor="middle" fill="#0b5c8a">Rb′ D711′ D2312 / 0</text>
  <path d="M520.0 312.0 L520.0 448.0" fill="none" stroke="#111111" stroke-width="1.5" marker-end="url(#ar)"/>
  <text x="520.0" y="380.0" font-size="11.5" text-anchor="middle" fill="#0b5c8a"></text>
  <text x="560" y="380" font-size="11.5" text-anchor="start" fill="#0b5c8a">Rb′ D711′ D2312′ / Sp</text>
  <path d="M504 512 L504 638" fill="none" stroke="#111111" stroke-width="1.5" marker-end="url(#ar)"/>
  <text x="478" y="580" font-size="11.5" text-anchor="end" fill="#0b5c8a">Rb / 0</text>
  <path d="M536 638 L536 512" fill="none" stroke="#111111" stroke-width="1.5" marker-end="url(#ar)"/>
  <text x="554" y="580" font-size="11.5" text-anchor="start" fill="#0b5c8a">Rb′ Eq′ D7′ / 0</text>
  <path d="M492 700 A430 430 0 0 0 152 308" fill="none" stroke="#111111" stroke-width="1.5" marker-end="url(#ar)"/>
  <text x="240" y="560" font-size="11.5" text-anchor="middle" fill="#0b5c8a">Rb′ Eq / 0</text>
  <path d="M548 700 A430 430 0 0 1 888 308" fill="none" stroke="#111111" stroke-width="1.5" marker-end="url(#ar)"/>
  <text x="800" y="560" font-size="11.5" text-anchor="middle" fill="#0b5c8a">Rb′ Eq′ D7 / 0</text>
  <path d="M150 248 A430 430 0 0 1 488 140" fill="none" stroke="#111111" stroke-width="1.5" marker-end="url(#ar)"/>
  <text x="250" y="168" font-size="11.5" text-anchor="middle" fill="#0b5c8a">Reset / 0</text>
  <path d="M890 248 A430 430 0 0 0 552 140" fill="none" stroke="#111111" stroke-width="1.5" marker-end="url(#ar)"/>
  <text x="790" y="168" font-size="11.5" text-anchor="middle" fill="#0b5c8a">Reset / 0</text>
  <text x="530" y="808" font-size="12" text-anchor="middle" fill="#666666">State codes ABC:  S0 = 000,  S1 = 001,  S2 = 010,  S3 = 011,  S4 = 100,  S5 = 101   (110 and 111 unused)</text>
</svg>
